<?xml version="1.0" standalone="no"?>
<!DOCTYPE svg PUBLIC "-//W3C//DTD SVG 20010904//EN"
 "http://www.w3.org/TR/2001/REC-SVG-20010904/DTD/svg10.dtd">
<svg version="1.0" xmlns="http://www.w3.org/2000/svg"
 width="200.000000pt" height="23.000000pt" viewBox="0 0 200.000000 23.000000"
 preserveAspectRatio="xMidYMid meet">

<g transform="translate(0.000000,23.000000) scale(0.100000,-0.100000)"
fill="#000000" stroke="none">
<path d="M1090 160 l0 -60 38 0 c46 0 72 24 72 66 0 41 -16 54 -67 54 l-43 0
0 -60z m64 27 c24 -18 17 -51 -12 -55 -19 -3 -22 1 -22 32 0 39 6 43 34 23z"/>
<path d="M1369 173 c4 -60 15 -73 57 -73 40 0 54 21 54 79 0 33 -4 41 -18 41
-14 0 -17 -7 -15 -32 4 -40 -9 -63 -31 -55 -11 4 -16 19 -16 47 0 31 -4 40
-18 40 -14 0 -17 -7 -13 -47z"/>
<path d="M1500 210 c0 -5 11 -10 25 -10 14 0 25 -3 25 -6 0 -3 -11 -19 -25
-36 -39 -46 -33 -58 25 -58 38 0 50 4 50 15 0 9 -10 15 -26 15 l-25 0 25 33
c37 49 34 57 -24 57 -27 0 -50 -4 -50 -10z"/>
<path d="M1760 160 c0 -53 2 -60 20 -60 16 0 20 7 20 32 l0 33 23 -32 c12 -18
30 -33 40 -33 14 0 17 9 17 60 0 52 -3 60 -19 60 -14 0 -17 -6 -13 -25 2 -14
1 -25 -3 -25 -4 0 -16 11 -27 25 -11 14 -28 25 -39 25 -17 0 -19 -7 -19 -60z"/>
<path d="M1900 160 l0 -60 50 0 c38 0 50 4 50 15 0 10 -10 15 -30 15 -16 0
-30 5 -30 10 0 6 11 10 25 10 14 0 25 5 25 10 0 6 -11 10 -25 10 -16 0 -25 6
-25 15 0 10 10 15 30 15 17 0 30 5 30 10 0 6 -22 10 -50 10 l-50 0 0 -60z"/>
<path d="M27 203 c-4 -6 -10 -21 -16 -34 -8 -22 -6 -24 20 -24 24 0 28 3 23
20 -11 34 -21 48 -27 38z m13 -33 c0 -5 -2 -10 -4 -10 -3 0 -8 5 -11 10 -3 6
-1 10 4 10 6 0 11 -4 11 -10z"/>
<path d="M161 173 c1 -23 3 -29 6 -15 2 12 9 22 14 22 5 0 10 -10 10 -22 1
-19 2 -20 6 -5 3 11 -4 27 -16 38 l-21 20 1 -38z"/>
<path d="M127 193 c-2 -5 -1 -19 3 -33 l6 -25 6 28 c5 26 -5 47 -15 30z"/>
<path d="M327 193 c-2 -5 -1 -19 3 -33 l6 -25 6 28 c5 26 -5 47 -15 30z"/>
<path d="M756 191 c-4 -7 -5 -15 -2 -18 9 -9 19 4 14 18 -4 11 -6 11 -12 0z"/>
<path d="M74 165 c1 -11 9 -21 19 -23 12 -3 17 3 16 20 -1 17 -3 18 -6 6 -2
-10 -8 -18 -13 -18 -5 0 -10 8 -13 18 -3 13 -4 12 -3 -3z"/>
<path d="M216 175 c-8 -22 1 -35 22 -35 15 0 15 2 2 10 -13 8 -12 10 3 10 11
0 17 6 15 13 -7 19 -35 20 -42 2z"/>
<path d="M271 163 c1 -23 2 -24 6 -5 2 12 8 22 13 22 5 0 11 -10 13 -22 5 -20
5 -20 4 2 -1 15 -9 26 -19 28 -14 3 -18 -3 -17 -25z"/>
<path d="M384 175 c-8 -19 4 -35 24 -34 15 1 15 2 0 6 -21 5 -24 29 -5 36 9 4
9 6 -1 6 -7 1 -15 -6 -18 -14z"/>
<path d="M474 179 c-5 -9 -2 -10 10 -6 12 5 20 0 26 -16 10 -22 10 -22 7 3 -2
27 -30 39 -43 19z"/>
<path d="M531 163 c1 -23 2 -24 6 -5 2 12 8 22 13 22 5 0 11 -10 13 -22 5 -20
5 -20 4 2 -1 15 -9 26 -19 28 -14 3 -18 -3 -17 -25z"/>
<path d="M584 175 c-4 -9 -2 -21 4 -27 15 -15 44 -1 40 19 -4 23 -36 29 -44 8z
m36 -16 c0 -5 -7 -9 -15 -9 -15 0 -20 12 -9 23 8 8 24 -1 24 -14z"/>
<path d="M666 173 c-6 -15 -8 -15 -16 -3 -6 8 -10 11 -10 5 0 -5 4 -16 9 -24
7 -11 11 -9 21 9 6 12 10 24 7 26 -2 3 -8 -3 -11 -13z"/>
<path d="M694 176 c-8 -21 3 -36 27 -36 15 0 20 6 17 22 -4 27 -35 37 -44 14z
m28 -11 c0 -5 -5 -11 -11 -13 -6 -2 -11 4 -11 13 0 9 5 15 11 13 6 -2 11 -8
11 -13z"/>
<path d="M813 179 c-16 -16 -5 -39 19 -39 14 0 19 6 16 22 -4 25 -19 33 -35
17z m27 -14 c0 -8 -4 -15 -9 -15 -13 0 -22 16 -14 24 11 11 23 6 23 -9z"/>
<path d="M867 183 c-4 -3 -7 -16 -6 -27 0 -20 1 -20 10 2 9 25 29 21 29 -5 0
-9 3 -14 6 -10 3 3 3 15 -1 26 -6 21 -25 28 -38 14z"/>
<path d="M362 160 c0 -14 2 -19 5 -12 2 6 2 18 0 25 -3 6 -5 1 -5 -13z"/>
<path d="M782 160 c0 -14 2 -19 5 -12 2 6 2 18 0 25 -3 6 -5 1 -5 -13z"/>
<path d="M451 154 c0 -11 3 -14 6 -6 3 7 2 16 -1 19 -3 4 -6 -2 -5 -13z"/>
<path d="M490 86 c0 -7 -9 -16 -21 -19 -29 -8 -23 -52 9 -53 20 -1 22 3 22 42
0 24 -2 44 -5 44 -3 0 -5 -6 -5 -14z m-2 -43 c-4 -22 -22 -20 -26 1 -2 10 3
16 13 16 10 0 15 -7 13 -17z"/>
<path d="M551 50 l1 -45 8 35 c5 20 5 39 -1 45 -5 5 -9 -8 -8 -35z"/>
<path d="M602 70 c-7 -12 -17 -18 -22 -15 -6 3 -10 2 -10 -4 0 -18 20 -23 26
-7 9 23 22 20 27 -6 3 -14 5 -9 6 15 1 41 -8 47 -27 17z"/>
<path d="M314 55 c-3 -8 -4 -20 -1 -27 3 -7 6 -3 6 9 1 12 7 24 14 26 9 4 9 6
-1 6 -7 1 -15 -6 -18 -14z"/>
<path d="M352 45 c0 -17 2 -22 5 -12 2 9 2 23 0 30 -3 6 -5 -1 -5 -18z"/>
<path d="M381 38 c1 -29 2 -30 8 -9 9 34 29 37 34 6 4 -24 4 -24 3 2 -1 21 -7
29 -23 31 -20 3 -23 -1 -22 -30z"/>
<path d="M650 55 c-11 -13 -11 -18 2 -31 20 -20 50 -7 46 20 -4 26 -30 32 -48
11z m36 -6 c3 -6 1 -16 -5 -22 -9 -9 -14 -8 -21 3 -9 15 -4 30 10 30 5 0 12
-5 16 -11z"/>
<path d="M721 43 c1 -22 2 -23 6 -8 3 11 10 23 17 27 7 5 5 8 -6 8 -13 0 -18
-7 -17 -27z"/>
<path d="M774 55 c-3 -8 -4 -20 -1 -27 3 -7 6 -3 6 9 1 12 7 24 14 26 9 4 9 6
-1 6 -7 1 -15 -6 -18 -14z"/>
<path d="M1304 56 c-8 -22 -2 -27 16 -16 12 7 12 12 3 21 -10 10 -14 9 -19 -5z"/>
<path d="M1563 35 c0 -22 2 -30 4 -17 2 12 2 30 0 40 -3 9 -5 -1 -4 -23z"/>
<path d="M1651 52 c-6 -12 -8 -22 -4 -23 4 0 16 -2 26 -4 21 -4 22 5 3 30 -13
18 -14 18 -25 -3z"/>
<path d="M1154 48 c3 -15 26 -23 26 -8 0 6 -4 9 -9 6 -5 -4 -12 -1 -14 4 -3 6
-4 5 -3 -2z"/>
<path d="M1195 50 c3 -5 8 -10 11 -10 2 0 4 5 4 10 0 6 -5 10 -11 10 -5 0 -7
-4 -4 -10z"/>
<path d="M1220 44 c0 -8 5 -12 10 -9 6 4 8 11 5 16 -9 14 -15 11 -15 -7z"/>
<path d="M1254 49 c3 -17 33 -20 33 -3 0 10 -4 11 -13 3 -8 -7 -14 -6 -17 1
-3 6 -5 6 -3 -1z"/>
<path d="M1340 51 c0 -5 5 -13 10 -16 6 -3 10 -2 10 4 0 5 -4 13 -10 16 -5 3
-10 2 -10 -4z"/>
<path d="M1383 53 c9 -3 17 -10 17 -16 0 -7 4 -6 10 3 5 8 10 11 10 5 0 -13
49 -13 54 0 2 6 -20 10 -53 11 -31 0 -48 -1 -38 -3z"/>
<path d="M1522 43 c2 -9 10 -18 18 -20 13 -4 13 -3 0 6 -13 10 -13 12 0 21 13
8 12 10 -3 10 -12 0 -17 -6 -15 -17z"/>
<path d="M1600 51 c13 -10 13 -12 0 -22 -13 -9 -13 -10 0 -6 8 2 15 10 15 17
0 7 -7 15 -15 17 -13 4 -13 3 0 -6z"/>
<path d="M1722 47 c-8 -10 -6 -13 7 -13 11 0 17 6 14 13 -3 7 -6 13 -8 13 -1
0 -7 -6 -13 -13z"/>
<path d="M1773 45 c0 -8 9 -15 19 -15 11 0 18 7 18 18 0 14 -2 15 -10 2 -6
-10 -10 -11 -10 -2 0 6 -4 12 -8 12 -5 0 -9 -7 -9 -15z"/>
<path d="M1830 45 c0 -17 9 -19 28 -6 11 7 10 10 -3 15 -23 9 -25 8 -25 -9z"/>
<path d="M1890 47 c0 -8 10 -19 23 -26 12 -6 14 -9 5 -7 -10 3 -18 1 -18 -5 0
-24 34 -2 37 24 3 23 0 27 -22 27 -14 0 -25 -6 -25 -13z"/>
<path d="M1965 50 l20 -9 -20 -1 -20 -1 20 -8 20 -8 -20 -5 c-16 -5 -15 -6 6
-7 23 -1 26 2 21 24 -3 18 -11 25 -26 24 -20 0 -20 -1 -1 -9z"/>
<path d="M1090 40 c0 -5 5 -10 10 -10 6 0 10 5 10 10 0 6 -4 10 -10 10 -5 0
-10 -4 -10 -10z"/>
<path d="M1120 40 c0 -5 5 -10 11 -10 5 0 7 5 4 10 -3 6 -8 10 -11 10 -2 0 -4
-4 -4 -10z"/>
<path d="M1650 9 c0 -5 9 -9 20 -9 11 0 20 2 20 4 0 2 -9 6 -20 9 -11 3 -20 1
-20 -4z"/>
<path d="M1713 13 c9 -2 25 -2 35 0 9 3 1 5 -18 5 -19 0 -27 -2 -17 -5z"/>
<path d="M1783 13 c9 -2 23 -2 30 0 6 3 -1 5 -18 5 -16 0 -22 -2 -12 -5z"/>
<path d="M1843 13 c9 -2 23 -2 30 0 6 3 -1 5 -18 5 -16 0 -22 -2 -12 -5z"/>
</g>
</svg>
